<?xml version="1.0" encoding="UTF-8" standalone="no"?>
<svg
   xmlns:dc="http://purl.org/dc/elements/1.1/"
   xmlns:cc="http://creativecommons.org/ns#"
   xmlns:rdf="http://www.w3.org/1999/02/22-rdf-syntax-ns#"
   xmlns:svg="http://www.w3.org/2000/svg"
   xmlns="http://www.w3.org/2000/svg"
   viewBox="0 0 566.35999 156.18668"
   height="156.18668"
   width="566.35999"
   xml:space="preserve"
   id="svg2"
   version="1.1"><metadata
     id="metadata8"><rdf:RDF><cc:Work
         rdf:about=""><dc:format>image/svg+xml</dc:format><dc:type
           rdf:resource="http://purl.org/dc/dcmitype/StillImage" /></cc:Work></rdf:RDF></metadata><defs
     id="defs6" /><g
     transform="matrix(1.3333333,0,0,-1.3333333,0,156.18667)"
     id="g10"><g
       transform="scale(0.1)"
       id="g12"><path
         id="path14"
         style="fill:#263648;fill-opacity:1;fill-rule:nonzero;stroke:none"
         d="M 392.379,1146.75 V 694.379 L 130.566,1146.75 H 0 V 504.773 H 117.109 V 956.188 L 385.621,504.773 H 508.867 V 1146.75 H 392.379" /><path
         id="path16"
         style="fill:#c52399;fill-opacity:1;fill-rule:nonzero;stroke:none"
         d="m 764.234,602.887 c 63.84,-77.918 160.762,-127.657 269.306,-127.657 108.57,0 205.52,49.739 269.36,127.657 z m 606.126,133.875 c 7.13,27.707 11.31,56.605 11.31,86.547 0,192.251 -155.87,348.101 -348.13,348.101 -192.208,0 -348.075,-155.85 -348.075,-348.101 0,-29.942 4.183,-58.84 11.308,-86.547 h 135.004 c -11.422,26.574 -17.785,55.808 -17.785,86.547 0,121.265 98.309,219.601 219.548,219.601 121.29,0 219.6,-98.336 219.6,-219.601 0,-30.739 -6.39,-59.973 -17.78,-86.547 h 135" /><path
         id="path18"
         style="fill:#263648;fill-opacity:1;fill-rule:nonzero;stroke:none"
         d="m 1709.44,504.625 h 128.98 l 222.34,641.985 H 1930.82 L 1776.81,645.145 1621.82,1146.61 h -131.84 l 219.46,-641.985" /><path
         id="path20"
         style="fill:#263648;fill-opacity:1;fill-rule:nonzero;stroke:none"
         d="m 2346.63,1040.75 h 280.07 v 105.89 H 2223.43 V 504.625 h 413.85 v 104.898 h -290.65 v 175.188 h 255.05 v 104.922 h -255.05 v 151.117" /><path
         id="path22"
         style="fill:#263648;fill-opacity:1;fill-rule:nonzero;stroke:none"
         d="m 2824.13,504.773 h 117.42 v 451.411 l 268.57,-451.411 h 123.19 V 1146.78 H 3216.82 V 694.402 l -261.79,452.378 h -130.9 V 504.773" /><path
         id="path24"
         style="fill:#263648;fill-opacity:1;fill-rule:nonzero;stroke:none"
         d="m 3497.9,1040.9 h 168.42 V 504.773 H 3790.5 V 1040.9 h 169.42 v 105.89 H 3497.9 V 1040.9" /><path
         id="path26"
         style="fill:#263648;fill-opacity:1;fill-rule:nonzero;stroke:none"
         d="M 4124.52,504.734 H 4247.7 V 1146.77 H 4124.52 V 504.734" /><path
         id="path28"
         style="fill:#263648;fill-opacity:1;fill-rule:nonzero;stroke:none"
         d="M 12.3359,4.39844 H 37.6367 V 125.328 H 167.441 V 4.39844 h 25.301 V 260.906 H 167.441 V 147.332 H 37.6367 V 260.906 H 12.3359 Z M 379.859,33.7891 c -10.996,-7 -35.625,-14.0078 -52.558,-14.0078 -40.43,0 -61.778,32.0078 -61.778,71.7382 H 393.801 V 103.25 c 0,50.352 -21.633,92.969 -74.586,92.969 -47.442,0 -78.996,-40.77 -78.996,-98.1174 C 240.219,41.8711 263.316,0 325.465,0 c 17.273,0 38.25,3.67188 54.394,10.2617 z M 265.523,111.309 c 0,30.902 20.977,65.113 55.161,65.113 34.582,0 47.812,-32.371 47.812,-65.113 z M 545.656,4.39844 h 22.735 c -1.836,12.83986 -1.836,24.24216 -1.836,39.31246 v 82.6871 c 0,48.922 -19.426,69.821 -65.77,69.821 -16.539,0 -40.824,-5.86 -55.16,-12.844 V 160.98 c 17.305,11.028 35.68,15.442 55.16,15.442 31.27,0 42.668,-16.172 42.668,-48.184 v -9.578 h -4.414 c -48.547,0 -115.41,-2.91 -115.41,-65.7616 C 423.629,35.9805 432.055,0 485.348,0 c 23.16,0 49.281,12.1016 59.574,34.5195 h 0.734 z m -2.203,83.08206 c 0,-20.25 -1.105,-67.6992 -55.531,-67.6992 -21.32,0 -38.992,9.2187 -38.992,33.8476 0,41.1914 47.812,45.2305 87.906,45.2305 h 6.617 z M 621.738,4.39844 H 644.84 V 280.016 H 621.738 Z M 784.145,191.805 h -42.637 v 53.289 l -23.102,-8.086 v -45.203 h -36.754 v -19.797 h 36.754 V 62.4492 C 718.406,28.2383 719.879,0 760.988,0 c 11.395,0 22.785,2.94141 28.297,5.14063 l -1.469,19.05857 c -6.617,-2.5703 -12.496,-4.4179 -21.316,-4.4179 -18.746,0 -24.992,14.0078 -24.992,30.9101 V 172.008 h 42.637 z M 825.734,4.39844 h 23.098 V 104.75 c 0,32.711 14.336,71.672 55.527,71.672 38.258,0 44.508,-27.942 44.508,-60.281 V 4.39844 h 23.098 V 116.512 c 0,46.308 -13.57,79.707 -63.93,79.707 -27.59,0 -48.543,-15.383 -58.465,-35.969 h -0.738 V 280.016 H 825.734 Z M 1210.14,255.789 c -13.23,6.981 -43.74,9.52 -58.81,9.52 -79.39,0 -129.32,-54.707 -129.32,-132.661 C 1022.01,53.2617 1070.47,0 1151.33,0 c 16.18,0 44.84,2.57031 58.81,10.9883 l -1.47,22.0234 c -14.7,-8.8125 -40.43,-11.0234 -57.34,-11.0234 -67.63,0 -104.02,45.9805 -104.02,110.6597 0,63.618 37.49,110.668 104.02,110.668 18.01,0 41.17,-2.578 57.34,-11.023 z M 1382.92,4.39844 h 22.76 c -1.84,12.83986 -1.84,24.24216 -1.84,39.31246 v 82.6871 c 0,48.922 -19.45,69.821 -65.76,69.821 -16.57,0 -40.83,-5.86 -55.16,-12.844 V 160.98 c 17.27,11.028 35.65,15.442 55.16,15.442 31.24,0 42.66,-16.172 42.66,-48.184 v -9.578 h -4.44 c -48.51,0 -115.38,-2.91 -115.38,-65.7616 0,-16.9179 8.43,-52.8984 61.72,-52.8984 23.16,0 49.25,12.1016 59.55,34.5195 h 0.73 z m -2.18,83.08206 c 0,-20.25 -1.13,-67.6992 -55.52,-67.6992 -21.35,0 -38.99,9.2187 -38.99,33.8476 0,41.1914 47.8,45.2305 87.87,45.2305 h 6.64 z m 78.29,-83.08206 h 23.1 V 97.0313 c 0,33.8207 9.93,74.9767 46.68,74.9767 5.88,0 12.13,-0.727 16.91,-2.207 v 24.211 c -4.04,1.101 -10.66,2.207 -16.17,2.207 -23.9,0 -39.7,-19.426 -48.15,-40.379 h -0.74 v 35.965 h -23.1 c 1.47,-13.575 1.47,-21.266 1.47,-41.844 z m 241.52,29.39066 c -11,-7 -35.66,-14.0078 -52.57,-14.0078 -40.46,0 -61.77,32.0078 -61.77,71.7382 h 128.27 V 103.25 c 0,50.352 -21.65,92.969 -74.58,92.969 -47.44,0 -79,-40.77 -79,-98.1174 C 1560.9,41.8711 1584,0 1646.15,0 c 17.27,0 38.25,3.67188 54.4,10.2617 z m -114.34,77.5199 c 0,30.902 20.95,65.113 55.16,65.113 34.58,0 47.81,-32.371 47.81,-65.113 h -102.97" /></g></g></svg>